<mxfile host="app.diagrams.net" modified="2024-03-08T09:19:11.035Z" agent="Mozilla/5.0 (Windows NT 10.0; Win64; x64) AppleWebKit/537.36 (KHTML, like Gecko) Chrome/122.0.0.0 Safari/537.36" etag="sIP4Bd5p867FouljXC8J" version="24.0.2" type="google">
  <diagram name="Page-1" id="x45UI2NkX7IosrWXDD4j">
    <mxGraphModel grid="1" page="1" gridSize="10" guides="1" tooltips="1" connect="1" arrows="1" fold="1" pageScale="1" pageWidth="850" pageHeight="1100" math="0" shadow="0">
      <root>
        <mxCell id="0" />
        <mxCell id="1" parent="0" />
        <mxCell id="IulJC9dMRsSJw13exruT-27" value="" style="rounded=0;whiteSpace=wrap;html=1;fillColor=#f8cecc;strokeColor=#b85450;opacity=50;" vertex="1" parent="1">
          <mxGeometry x="510" y="500" width="300" height="110" as="geometry" />
        </mxCell>
        <mxCell id="IulJC9dMRsSJw13exruT-26" value="" style="rounded=0;whiteSpace=wrap;html=1;fillColor=#fff2cc;strokeColor=#d6b656;opacity=50;" vertex="1" parent="1">
          <mxGeometry x="510" y="370" width="300" height="110" as="geometry" />
        </mxCell>
        <mxCell id="IulJC9dMRsSJw13exruT-2" value="" style="rounded=0;whiteSpace=wrap;html=1;fillColor=#d5e8d4;strokeColor=#82b366;opacity=50;" vertex="1" parent="1">
          <mxGeometry x="160" y="210" width="500" height="420" as="geometry" />
        </mxCell>
        <mxCell id="YODYC_gyw6eaKJZVDwak-11" value="" style="rounded=0;whiteSpace=wrap;html=1;fillColor=#dae8fc;strokeColor=#6c8ebf;opacity=50;" vertex="1" parent="1">
          <mxGeometry x="510" y="220" width="300" height="130" as="geometry" />
        </mxCell>
        <mxCell id="IulJC9dMRsSJw13exruT-11" style="edgeStyle=orthogonalEdgeStyle;rounded=0;orthogonalLoop=1;jettySize=auto;html=1;exitX=0;exitY=0.5;exitDx=0;exitDy=0;" edge="1" parent="1" source="YODYC_gyw6eaKJZVDwak-2" target="YODYC_gyw6eaKJZVDwak-3">
          <mxGeometry relative="1" as="geometry" />
        </mxCell>
        <mxCell id="YODYC_gyw6eaKJZVDwak-2" value="analysis1-1" style="rounded=1;whiteSpace=wrap;html=1;" vertex="1" parent="1">
          <mxGeometry x="680" y="240" width="120" height="60" as="geometry" />
        </mxCell>
        <mxCell id="IulJC9dMRsSJw13exruT-12" style="edgeStyle=orthogonalEdgeStyle;rounded=0;orthogonalLoop=1;jettySize=auto;html=1;exitX=0;exitY=0.5;exitDx=0;exitDy=0;" edge="1" parent="1" source="YODYC_gyw6eaKJZVDwak-3" target="IulJC9dMRsSJw13exruT-4">
          <mxGeometry relative="1" as="geometry" />
        </mxCell>
        <mxCell id="YODYC_gyw6eaKJZVDwak-3" value="nginx1-1" style="rounded=1;whiteSpace=wrap;html=1;" vertex="1" parent="1">
          <mxGeometry x="520" y="240" width="120" height="60" as="geometry" />
        </mxCell>
        <mxCell id="IulJC9dMRsSJw13exruT-30" style="edgeStyle=orthogonalEdgeStyle;rounded=0;orthogonalLoop=1;jettySize=auto;html=1;exitX=0;exitY=0.5;exitDx=0;exitDy=0;" edge="1" parent="1" source="YODYC_gyw6eaKJZVDwak-4" target="YODYC_gyw6eaKJZVDwak-5">
          <mxGeometry relative="1" as="geometry" />
        </mxCell>
        <mxCell id="YODYC_gyw6eaKJZVDwak-4" value="analysis2-1" style="rounded=1;whiteSpace=wrap;html=1;" vertex="1" parent="1">
          <mxGeometry x="680" y="380" width="120" height="60" as="geometry" />
        </mxCell>
        <mxCell id="YODYC_gyw6eaKJZVDwak-5" value="nginx2-1" style="rounded=1;whiteSpace=wrap;html=1;" vertex="1" parent="1">
          <mxGeometry x="520" y="380" width="120" height="60" as="geometry" />
        </mxCell>
        <mxCell id="IulJC9dMRsSJw13exruT-31" style="edgeStyle=orthogonalEdgeStyle;rounded=0;orthogonalLoop=1;jettySize=auto;html=1;exitX=0;exitY=0.5;exitDx=0;exitDy=0;" edge="1" parent="1" source="YODYC_gyw6eaKJZVDwak-6" target="YODYC_gyw6eaKJZVDwak-7">
          <mxGeometry relative="1" as="geometry" />
        </mxCell>
        <mxCell id="YODYC_gyw6eaKJZVDwak-6" value="analysis1-2" style="rounded=1;whiteSpace=wrap;html=1;" vertex="1" parent="1">
          <mxGeometry x="680" y="510" width="120" height="60" as="geometry" />
        </mxCell>
        <mxCell id="YODYC_gyw6eaKJZVDwak-7" value="nginx1-2" style="rounded=1;whiteSpace=wrap;html=1;" vertex="1" parent="1">
          <mxGeometry x="520" y="510" width="120" height="60" as="geometry" />
        </mxCell>
        <mxCell id="YODYC_gyw6eaKJZVDwak-8" value="fhir.flame.node&lt;div&gt;s3.flame.node&lt;/div&gt;&lt;div&gt;result.flame.node&lt;/div&gt;&lt;div&gt;message.flame.node&lt;/div&gt;" style="text;html=1;align=left;verticalAlign=middle;whiteSpace=wrap;rounded=0;" vertex="1" parent="1">
          <mxGeometry x="820" y="255" width="130" height="30" as="geometry" />
        </mxCell>
        <mxCell id="YODYC_gyw6eaKJZVDwak-13" value="analysis1-1_net" style="text;html=1;align=center;verticalAlign=middle;whiteSpace=wrap;rounded=0;" vertex="1" parent="1">
          <mxGeometry x="510" y="320" width="110" height="30" as="geometry" />
        </mxCell>
        <mxCell id="IulJC9dMRsSJw13exruT-1" value="&lt;div&gt;server {&lt;/div&gt;&lt;div&gt;&amp;nbsp; &amp;nbsp; listen 80;&lt;/div&gt;&lt;div&gt;&amp;nbsp; &amp;nbsp; server_name fhir.flame.node;&lt;/div&gt;&lt;div&gt;&lt;br&gt;&lt;/div&gt;&lt;div&gt;&amp;nbsp; &amp;nbsp; location / {&lt;/div&gt;&lt;div&gt;&amp;nbsp; &amp;nbsp; &amp;nbsp; &amp;nbsp; # Configure how to handle requests for fhir.flame.node&lt;/div&gt;&lt;div&gt;&amp;nbsp; &amp;nbsp; &amp;nbsp; &amp;nbsp; proxy_pass http://kong/datastore/&lt;b&gt;project1&lt;/b&gt;/fhir;&lt;/div&gt;&lt;div&gt;&amp;nbsp; &amp;nbsp; }&lt;/div&gt;&lt;div&gt;}&lt;/div&gt;&lt;div&gt;&lt;br&gt;&lt;/div&gt;&lt;div&gt;server {&lt;/div&gt;&lt;div&gt;&amp;nbsp; &amp;nbsp; listen 80;&lt;/div&gt;&lt;div&gt;&amp;nbsp; &amp;nbsp; server_name s3.flame.node;&lt;/div&gt;&lt;div&gt;&lt;br&gt;&lt;/div&gt;&lt;div&gt;&amp;nbsp; &amp;nbsp; location / {&lt;/div&gt;&lt;div&gt;&amp;nbsp; &amp;nbsp; &amp;nbsp; &amp;nbsp; # Configure how to handle requests for s3.flame.node&lt;/div&gt;&lt;div&gt;&lt;span style=&quot;white-space: pre;&quot;&gt;&#x9;&lt;/span&gt;&lt;span style=&quot;background-color: initial;&quot;&gt;proxy_pass http://kong/datastore/&lt;b&gt;project1&lt;/b&gt;/s3;&lt;/span&gt;&lt;br&gt;&lt;/div&gt;&lt;div&gt;&amp;nbsp; &amp;nbsp; }&lt;/div&gt;&lt;div&gt;}&lt;/div&gt;&lt;div&gt;&lt;br&gt;&lt;/div&gt;&lt;div&gt;server {&lt;/div&gt;&lt;div&gt;&amp;nbsp; &amp;nbsp; listen 80;&lt;/div&gt;&lt;div&gt;&amp;nbsp; &amp;nbsp; server_name result.flame.node;&lt;/div&gt;&lt;div&gt;&lt;br&gt;&lt;/div&gt;&lt;div&gt;&amp;nbsp; &amp;nbsp; location / {&lt;/div&gt;&lt;div&gt;&amp;nbsp; &amp;nbsp; &amp;nbsp; &amp;nbsp; # Configure how to handle requests for result.flame.node&lt;/div&gt;&lt;div&gt;&amp;nbsp; &amp;nbsp; }&lt;/div&gt;&lt;div&gt;}&lt;/div&gt;&lt;div&gt;&lt;br&gt;&lt;/div&gt;&lt;div&gt;server {&lt;/div&gt;&lt;div&gt;&amp;nbsp; &amp;nbsp; listen 80;&lt;/div&gt;&lt;div&gt;&amp;nbsp; &amp;nbsp; server_name message.flame.node;&lt;/div&gt;&lt;div&gt;&lt;br&gt;&lt;/div&gt;&lt;div&gt;&amp;nbsp; &amp;nbsp; location / {&lt;/div&gt;&lt;div&gt;&amp;nbsp; &amp;nbsp; &amp;nbsp; &amp;nbsp; # Configure how to handle requests for message.flame.node&lt;/div&gt;&lt;div&gt;&amp;nbsp; &amp;nbsp; }&lt;/div&gt;&lt;div&gt;}&lt;/div&gt;&lt;div&gt;&lt;br&gt;&lt;/div&gt;" style="text;html=1;align=left;verticalAlign=middle;whiteSpace=wrap;rounded=0;" vertex="1" parent="1">
          <mxGeometry x="510" y="-360" width="370" height="580" as="geometry" />
        </mxCell>
        <mxCell id="IulJC9dMRsSJw13exruT-3" value="result" style="rounded=1;whiteSpace=wrap;html=1;" vertex="1" parent="1">
          <mxGeometry x="260" y="350" width="120" height="60" as="geometry" />
        </mxCell>
        <mxCell id="IulJC9dMRsSJw13exruT-4" value="kong" style="rounded=1;whiteSpace=wrap;html=1;" vertex="1" parent="1">
          <mxGeometry x="260" y="240" width="120" height="60" as="geometry" />
        </mxCell>
        <mxCell id="IulJC9dMRsSJw13exruT-5" value="message" style="rounded=1;whiteSpace=wrap;html=1;" vertex="1" parent="1">
          <mxGeometry x="260" y="450" width="120" height="60" as="geometry" />
        </mxCell>
        <mxCell id="IulJC9dMRsSJw13exruT-6" value="flame_net" style="text;html=1;align=center;verticalAlign=middle;whiteSpace=wrap;rounded=0;" vertex="1" parent="1">
          <mxGeometry x="160" y="600" width="80" height="30" as="geometry" />
        </mxCell>
        <mxCell id="IulJC9dMRsSJw13exruT-7" value="p1_fhir" style="rounded=1;whiteSpace=wrap;html=1;" vertex="1" parent="1">
          <mxGeometry x="-20" y="200" width="120" height="60" as="geometry" />
        </mxCell>
        <mxCell id="IulJC9dMRsSJw13exruT-8" value="p1_s3" style="rounded=1;whiteSpace=wrap;html=1;" vertex="1" parent="1">
          <mxGeometry x="-150" y="230" width="120" height="60" as="geometry" />
        </mxCell>
        <mxCell id="IulJC9dMRsSJw13exruT-9" value="p2_fhir" style="rounded=1;whiteSpace=wrap;html=1;" vertex="1" parent="1">
          <mxGeometry x="-20" y="350" width="120" height="60" as="geometry" />
        </mxCell>
        <mxCell id="IulJC9dMRsSJw13exruT-10" value="p2_s3" style="rounded=1;whiteSpace=wrap;html=1;" vertex="1" parent="1">
          <mxGeometry x="-150" y="330" width="120" height="60" as="geometry" />
        </mxCell>
        <mxCell id="IulJC9dMRsSJw13exruT-14" value="" style="endArrow=none;html=1;rounded=0;entryX=0;entryY=0.5;entryDx=0;entryDy=0;exitX=1;exitY=0.5;exitDx=0;exitDy=0;startArrow=classic;startFill=1;endFill=0;" edge="1" parent="1" source="IulJC9dMRsSJw13exruT-3" target="YODYC_gyw6eaKJZVDwak-3">
          <mxGeometry width="50" height="50" relative="1" as="geometry">
            <mxPoint x="380" y="385" as="sourcePoint" />
            <mxPoint x="430" y="335" as="targetPoint" />
          </mxGeometry>
        </mxCell>
        <mxCell id="IulJC9dMRsSJw13exruT-15" value="" style="endArrow=none;html=1;rounded=0;exitX=1;exitY=0.5;exitDx=0;exitDy=0;entryX=0;entryY=0.5;entryDx=0;entryDy=0;startArrow=classic;startFill=1;endFill=0;" edge="1" parent="1" source="IulJC9dMRsSJw13exruT-5" target="YODYC_gyw6eaKJZVDwak-3">
          <mxGeometry width="50" height="50" relative="1" as="geometry">
            <mxPoint x="385" y="480" as="sourcePoint" />
            <mxPoint x="435" y="430" as="targetPoint" />
          </mxGeometry>
        </mxCell>
        <mxCell id="IulJC9dMRsSJw13exruT-16" value="" style="endArrow=none;html=1;rounded=0;entryX=0;entryY=0.5;entryDx=0;entryDy=0;exitX=1;exitY=0.5;exitDx=0;exitDy=0;startArrow=classic;startFill=1;endFill=0;" edge="1" parent="1" source="IulJC9dMRsSJw13exruT-7" target="IulJC9dMRsSJw13exruT-4">
          <mxGeometry width="50" height="50" relative="1" as="geometry">
            <mxPoint x="180" y="340" as="sourcePoint" />
            <mxPoint x="230" y="290" as="targetPoint" />
          </mxGeometry>
        </mxCell>
        <mxCell id="IulJC9dMRsSJw13exruT-17" value="" style="endArrow=none;html=1;rounded=0;entryX=0;entryY=0.5;entryDx=0;entryDy=0;exitX=1;exitY=0.75;exitDx=0;exitDy=0;startArrow=classic;startFill=1;endFill=0;" edge="1" parent="1" source="IulJC9dMRsSJw13exruT-8" target="IulJC9dMRsSJw13exruT-4">
          <mxGeometry width="50" height="50" relative="1" as="geometry">
            <mxPoint x="180" y="340" as="sourcePoint" />
            <mxPoint x="230" y="290" as="targetPoint" />
          </mxGeometry>
        </mxCell>
        <mxCell id="IulJC9dMRsSJw13exruT-28" value="analysis2-1_net" style="text;html=1;align=center;verticalAlign=middle;whiteSpace=wrap;rounded=0;" vertex="1" parent="1">
          <mxGeometry x="510" y="450" width="110" height="30" as="geometry" />
        </mxCell>
        <mxCell id="IulJC9dMRsSJw13exruT-29" value="analysis1-2_net" style="text;html=1;align=center;verticalAlign=middle;whiteSpace=wrap;rounded=0;" vertex="1" parent="1">
          <mxGeometry x="510" y="580" width="110" height="30" as="geometry" />
        </mxCell>
        <mxCell id="IulJC9dMRsSJw13exruT-32" value="" style="endArrow=classic;html=1;rounded=0;" edge="1" parent="1">
          <mxGeometry width="50" height="50" relative="1" as="geometry">
            <mxPoint x="520" y="410" as="sourcePoint" />
            <mxPoint x="480" y="380" as="targetPoint" />
          </mxGeometry>
        </mxCell>
        <mxCell id="IulJC9dMRsSJw13exruT-33" value="" style="endArrow=classic;html=1;rounded=0;" edge="1" parent="1">
          <mxGeometry width="50" height="50" relative="1" as="geometry">
            <mxPoint x="520" y="410" as="sourcePoint" />
            <mxPoint x="480" y="410" as="targetPoint" />
          </mxGeometry>
        </mxCell>
        <mxCell id="IulJC9dMRsSJw13exruT-34" value="" style="endArrow=classic;html=1;rounded=0;" edge="1" parent="1">
          <mxGeometry width="50" height="50" relative="1" as="geometry">
            <mxPoint x="520" y="410" as="sourcePoint" />
            <mxPoint x="480" y="440" as="targetPoint" />
          </mxGeometry>
        </mxCell>
        <mxCell id="IulJC9dMRsSJw13exruT-35" value="" style="endArrow=classic;html=1;rounded=0;" edge="1" parent="1">
          <mxGeometry width="50" height="50" relative="1" as="geometry">
            <mxPoint x="520" y="540" as="sourcePoint" />
            <mxPoint x="480" y="510" as="targetPoint" />
          </mxGeometry>
        </mxCell>
        <mxCell id="IulJC9dMRsSJw13exruT-36" value="" style="endArrow=classic;html=1;rounded=0;" edge="1" parent="1">
          <mxGeometry width="50" height="50" relative="1" as="geometry">
            <mxPoint x="520" y="540" as="sourcePoint" />
            <mxPoint x="480" y="540" as="targetPoint" />
          </mxGeometry>
        </mxCell>
        <mxCell id="IulJC9dMRsSJw13exruT-37" value="" style="endArrow=classic;html=1;rounded=0;" edge="1" parent="1">
          <mxGeometry width="50" height="50" relative="1" as="geometry">
            <mxPoint x="520" y="540" as="sourcePoint" />
            <mxPoint x="480" y="570" as="targetPoint" />
          </mxGeometry>
        </mxCell>
        <mxCell id="IulJC9dMRsSJw13exruT-38" value="&lt;div&gt;server {&lt;/div&gt;&lt;div&gt;&amp;nbsp; &amp;nbsp; listen 80;&lt;/div&gt;&lt;div&gt;&amp;nbsp; &amp;nbsp; server_name fhir.flame.node;&lt;/div&gt;&lt;div&gt;&lt;br&gt;&lt;/div&gt;&lt;div&gt;&amp;nbsp; &amp;nbsp; location / {&lt;/div&gt;&lt;div&gt;&amp;nbsp; &amp;nbsp; &amp;nbsp; &amp;nbsp; # Configure how to handle requests for fhir.flame.node&lt;/div&gt;&lt;div&gt;&amp;nbsp; &amp;nbsp; &amp;nbsp; &amp;nbsp; proxy_pass http://kong/datastore/&lt;font color=&quot;#ff3333&quot;&gt;&lt;b&gt;project2&lt;/b&gt;&lt;/font&gt;/fhir;&lt;/div&gt;&lt;div&gt;&amp;nbsp; &amp;nbsp; }&lt;/div&gt;&lt;div&gt;}&lt;/div&gt;&lt;div&gt;&lt;br&gt;&lt;/div&gt;&lt;div&gt;server {&lt;/div&gt;&lt;div&gt;&amp;nbsp; &amp;nbsp; listen 80;&lt;/div&gt;&lt;div&gt;&amp;nbsp; &amp;nbsp; server_name s3.flame.node;&lt;/div&gt;&lt;div&gt;&lt;br&gt;&lt;/div&gt;&lt;div&gt;&amp;nbsp; &amp;nbsp; location / {&lt;/div&gt;&lt;div&gt;&amp;nbsp; &amp;nbsp; &amp;nbsp; &amp;nbsp; # Configure how to handle requests for s3.flame.node&lt;/div&gt;&lt;div&gt;&lt;span style=&quot;white-space: pre;&quot;&gt;&#x9;&lt;/span&gt;&lt;span style=&quot;background-color: initial;&quot;&gt;proxy_pass http://kong/datastore/&lt;b&gt;&lt;font color=&quot;#ff3333&quot;&gt;project2&lt;/font&gt;&lt;/b&gt;/s3;&lt;/span&gt;&lt;br&gt;&lt;/div&gt;&lt;div&gt;&amp;nbsp; &amp;nbsp; }&lt;/div&gt;&lt;div&gt;}&lt;/div&gt;&lt;div&gt;&lt;br&gt;&lt;/div&gt;&lt;div&gt;server {&lt;/div&gt;&lt;div&gt;&amp;nbsp; &amp;nbsp; listen 80;&lt;/div&gt;&lt;div&gt;&amp;nbsp; &amp;nbsp; server_name result.flame.node;&lt;/div&gt;&lt;div&gt;&lt;br&gt;&lt;/div&gt;&lt;div&gt;&amp;nbsp; &amp;nbsp; location / {&lt;/div&gt;&lt;div&gt;&amp;nbsp; &amp;nbsp; &amp;nbsp; &amp;nbsp; # Configure how to handle requests for result.flame.node&lt;/div&gt;&lt;div&gt;&amp;nbsp; &amp;nbsp; }&lt;/div&gt;&lt;div&gt;}&lt;/div&gt;&lt;div&gt;&lt;br&gt;&lt;/div&gt;&lt;div&gt;server {&lt;/div&gt;&lt;div&gt;&amp;nbsp; &amp;nbsp; listen 80;&lt;/div&gt;&lt;div&gt;&amp;nbsp; &amp;nbsp; server_name message.flame.node;&lt;/div&gt;&lt;div&gt;&lt;br&gt;&lt;/div&gt;&lt;div&gt;&amp;nbsp; &amp;nbsp; location / {&lt;/div&gt;&lt;div&gt;&amp;nbsp; &amp;nbsp; &amp;nbsp; &amp;nbsp; # Configure how to handle requests for message.flame.node&lt;/div&gt;&lt;div&gt;&amp;nbsp; &amp;nbsp; }&lt;/div&gt;&lt;div&gt;}&lt;/div&gt;&lt;div&gt;&lt;br&gt;&lt;/div&gt;" style="text;html=1;align=left;verticalAlign=middle;whiteSpace=wrap;rounded=0;" vertex="1" parent="1">
          <mxGeometry x="510" y="630" width="370" height="580" as="geometry" />
        </mxCell>
        <mxCell id="IulJC9dMRsSJw13exruT-39" value="fhir.flame.node&lt;div&gt;s3.flame.node&lt;/div&gt;&lt;div&gt;result.flame.node&lt;/div&gt;&lt;div&gt;message.flame.node&lt;/div&gt;" style="text;html=1;align=left;verticalAlign=middle;whiteSpace=wrap;rounded=0;" vertex="1" parent="1">
          <mxGeometry x="820" y="395" width="130" height="30" as="geometry" />
        </mxCell>
        <mxCell id="IulJC9dMRsSJw13exruT-40" value="fhir.flame.node&lt;div&gt;s3.flame.node&lt;/div&gt;&lt;div&gt;result.flame.node&lt;/div&gt;&lt;div&gt;message.flame.node&lt;/div&gt;" style="text;html=1;align=left;verticalAlign=middle;whiteSpace=wrap;rounded=0;" vertex="1" parent="1">
          <mxGeometry x="820" y="525" width="130" height="30" as="geometry" />
        </mxCell>
      </root>
    </mxGraphModel>
  </diagram>
</mxfile>
